<svg xmlns="http://www.w3.org/2000/svg"><symbol id="roomba" viewBox="0 0 205 236.7"><path fill="#fff" d="M102.5 2.9l100 57.7v115.5l-100 57.7-100-57.7V60.6l100-57.7z"/><path fill="#ff9500" d="M44.5 161a2 2 0 0 1-1.9-1.9 2 2 0 0 1 1.9-1.9h9.4v-11.9h-9.4a1.8 1.8 0 0 1-1.9-1.9V106a1.8 1.8 0 0 1 1.9-1.9H57c.9-26.9 21-41.7 45.5-41.7s44.6 14.8 45.5 41.7h12.5a1.8 1.8 0 0 1 1.9 1.9v37.4a1.8 1.8 0 0 1-1.9 1.9H151v11.9h9.5a2 2 0 0 1 1.9 1.9 2 2 0 0 1-1.9 1.9zm1.9-53.1v33.6h112.2v-33.6zm11.3 37.4v11.9h12.2v-11.9zm3.1-41.2h83.4c-.9-24.4-19.5-37.9-41.7-37.9s-40.8 13.5-41.7 37.9zm12.9 41.2v11.9h18.9v-11.9zm22.7 0v11.9h12.2v-11.9zm51.4-12.9h-46.3a2 2 0 0 1-1.8-1.9 2 2 0 0 1 1.8-1.9h46.3a2 2 0 0 1 1.9 1.9 2 2 0 0 1-1.9 1.9zm-35.4 12.9v11.9h18.9v-11.9zm22.7 0v11.9h12.2v-11.9z"/></symbol><symbol id="snowglobe" viewBox="0 0 205 236.7"><path fill="#fff" d="M102.5 2.9l100 57.7v115.5l-100 57.7-100-57.7V60.6l100-57.7z"/><path fill="#ff9500" d="M46 165.2l-4.4-6.3a1.8 1.8 0 0 1 .2-2.2l15.8-18.6h-7.8a1.8 1.8 0 0 1-1.9-1.9v-13.7a1.8 1.8 0 0 1 1.9-1.9h11a49.7 49.7 0 0 1-2.1-14.4 45 45 0 0 1 44.9-44.7c24.5 0 44.8 20.3 44.8 44.7a46.5 46.5 0 0 1-2.1 14.4h11a1.8 1.8 0 0 1 1.9 1.9v13.7a1.8 1.8 0 0 1-1.9 1.9h-9.7l15.6 18.6a1.8 1.8 0 0 1 0 2.2l-4.4 6.3a2 2 0 0 1-2.4.6l-9.1-4.8H57.6l-9.2 4.8a2.1 2.1 0 0 1-2.4-.6zm28.8-27.1H62.3l-16.7 19.7 2.7 3.8 32-16.9zm-23.1-13.7v9.9h103.7v-9.9zm13.1-3.8h77.5a46.2 46.2 0 0 0 2.3-14.4 41.1 41.1 0 0 0-82.1 0c0 4.9.4 10.1 2.3 14.4zM83 147.7l-18.1 9.5h25.8zm-3.3-9.6l16 19.1h13.6l16-19.1zm42.3 9.6l-7.7 9.5H140zm20.7-9.6h-12.5l-5.7 6.6 32.2 16.9 2.7-3.6z"/></symbol><symbol id="spacestation" viewBox="0 0 205 236.7"><path fill="#fff" d="M102.5 2.9l100 57.7v115.5l-100 57.7-100-57.7V60.6l100-57.7z"/><path fill="#ff9500" d="M47.7 161a1.8 1.8 0 0 1-1.9-1.9v-22.9h-25a2 2 0 0 1-1.9-1.9 2 2 0 0 1 1.9-1.9H35v-12.3a1.7 1.7 0 0 1 1.9-1.9h7.4a60 60 0 0 1 58-46.1c.2-.2.4-.2.8 0a59.8 59.8 0 0 1 57.6 46.1h7.4a1.7 1.7 0 0 1 1.9 1.9v12.3h14.2a2 2 0 0 1 1.9 1.9 2 2 0 0 1-1.9 1.9h-25v22.9a1.8 1.8 0 0 1-1.9 1.9zm-8.9-39v10.4h127.4V122zm59.9-45.9c-24.3 1.5-44.6 19.1-50.4 42.1h20.3zm-49.1 60.1v21h51v-21zm51-56.3l-27.3 38.3h27.3zm3.8-4v42.3h52.3a56.1 56.1 0 0 0-52.3-42.3zm0 60.3v21h8.5v-21zm12.3 0v21h38.7v-21z"/></symbol></svg>