<svg xmlns="http://www.w3.org/2000/svg"><symbol id="spacestation" viewBox="0 0 256 295.6"><path fill="#ff9500" d="M128 2.3l126 72.8v145.4l-126 72.8L2 220.5V75.1L128 2.3z"/><path fill="#fff" d="M58.9 201.6a2.2 2.2 0 0 1-2.3-2.4v-28.9H25a2.4 2.4 0 1 1 0-4.8h17.9v-15.6a2.2 2.2 0 0 1 2.4-2.3h9.3a75.7 75.7 0 0 1 73.2-58.1c.2-.2.4-.2.9 0 35.4.2 64.8 25.1 72.7 58.1h9.3a2.2 2.2 0 0 1 2.4 2.3v15.6H231a2.4 2.4 0 0 1 0 4.8h-31.6v28.9a2.2 2.2 0 0 1-2.3 2.4zm-11.2-49.3v13.2h160.6v-13.2zm75.5-57.8c-30.6 1.9-56.1 24.1-63.5 53.1h25.5zm-61.9 75.8v26.5h64.3v-26.5zm64.3-71l-34.4 48.3h34.4zm4.8-5v53.3h65.9a70.9 70.9 0 0 0-65.9-53.3zm0 76v26.5h10.7v-26.5zm15.5 0v26.5h48.8v-26.5z"/></symbol><symbol id="snowglobe" viewBox="0 0 256 295.6"><path fill="#ff9500" d="M128 2.3l126 72.8v145.4l-126 72.8L2 220.5V75.1L128 2.3z"/><path fill="#fff" d="M56.8 206.8l-5.5-7.9a2.4 2.4 0 0 1 .2-2.8l19.9-23.5h-9.8a2.2 2.2 0 0 1-2.4-2.3v-17.2a2.2 2.2 0 0 1 2.4-2.4h13.8a70.2 70.2 0 0 1-2.6-18.2 56.7 56.7 0 0 1 56.6-56.4c30.9 0 56.4 25.6 56.4 56.4a59.4 59.4 0 0 1-2.6 18.2h13.9a2.2 2.2 0 0 1 2.3 2.4v17.2a2.2 2.2 0 0 1-2.3 2.3h-12.2l19.6 23.5a2.6 2.6 0 0 1 0 2.8l-5.5 7.9a2.5 2.5 0 0 1-3.1.7l-11.5-5.9h-113l-11.5 5.9a2.5 2.5 0 0 1-3.1-.7zm36.3-34.2H77.3l-21 24.9 3.4 4.8L100 181zM64 155.4v12.5h130.7v-12.5zm16.4-4.7h97.8a58.7 58.7 0 0 0 2.8-18.2 51.7 51.7 0 0 0-51.6-51.6c-28.4 0-51.8 23.2-51.8 51.6 0 6.2.5 12.7 2.8 18.2zm23 34.1l-22.7 12h32.5zm-4.1-12.2l20.1 24.2h17.2l20.1-24.2zm53.3 12.2l-9.8 12h32.5zm26.1-12.2h-15.8l-7.2 8.4 40.6 21.3 3.4-4.6z"/></symbol><symbol id="roomba" viewBox="0 0 256 295.6"><path fill="#ff9500" d="M128 2.3l126 72.8v145.4l-126 72.8L2 220.5V75.1L128 2.3z"/><path fill="#fff" d="M54.9 201.6a2.4 2.4 0 0 1 0-4.8h11.9v-15.1H54.9a2.2 2.2 0 0 1-2.4-2.4v-47a2.2 2.2 0 0 1 2.4-2.4h15.7c1.2-34 26.6-52.6 57.4-52.6s56.1 18.6 57.3 52.6h15.8a2.3 2.3 0 0 1 2.4 2.4v47a2.3 2.3 0 0 1-2.4 2.4h-11.9v15.1h11.9a2.4 2.4 0 1 1 0 4.8zm2.4-66.9v42.2h141.4v-42.2zm14.3 47v15.1h15.3v-15.1zm3.8-51.8h105.2C179.4 99.1 156 82.1 128 82.1s-51.4 17-52.6 47.8zm16.3 51.8v15.1h23.9v-15.1zm28.7 0v15.1h15.2v-15.1zm64.7-16.2h-58.3a2.4 2.4 0 1 1 0-4.8h58.3a2.4 2.4 0 0 1 0 4.8zm-44.7 16.2v15.1h23.9v-15.1zm28.7 0v15.1h15.3v-15.1z"/></symbol></svg>